<?xml version="1.0" encoding="UTF-8" standalone="no"?>
<!-- Created with Inkscape (http://www.inkscape.org/) -->

<svg
   xmlns:dc="http://purl.org/dc/elements/1.1/"
   xmlns:cc="http://creativecommons.org/ns#"
   xmlns:rdf="http://www.w3.org/1999/02/22-rdf-syntax-ns#"
   xmlns:svg="http://www.w3.org/2000/svg"
   xmlns="http://www.w3.org/2000/svg"
   version="1.1"
   width="20"
   height="20"
   id="svg2">
  <defs
     id="defs4" />
  <metadata
     id="metadata7">
    <rdf:RDF>
      <cc:Work
         rdf:about="">
        <dc:format>image/svg+xml</dc:format>
        <dc:type
           rdf:resource="http://purl.org/dc/dcmitype/StillImage" />
        <dc:title></dc:title>
      </cc:Work>
    </rdf:RDF>
  </metadata>
  <g
     transform="translate(0,-1032.3622)"
     id="layer1">
    <path
       d="m 0.78580397,1051.3479 18.39156103,0"
       id="path2987"
       style="fill:none;stroke:#000000;stroke-width:0.60000002;stroke-linecap:butt;stroke-linejoin:miter;stroke-miterlimit:4;stroke-opacity:1;stroke-dasharray:none" />
    <path
       d="m 1.6964286,1051.0779 0,-13.0357 0.8482143,0 0,10.491 1.1263571,0 0,-3.2589 1.55,0 0,-11.0268 2.349,0 0,13.5268 2.139,0 0,-8.9286 1.106,-1.5995 1.106,1.5995 0,9.3304 1.849,0 0,-12.9911 2.18,0 -0.1,9.3412 2.408929,1.2 0,5.441"
       id="path2991"
       style="fill:none;stroke:#000000;stroke-width:0.60000002;stroke-linecap:butt;stroke-linejoin:miter;stroke-miterlimit:4;stroke-opacity:1;stroke-dasharray:none" />
    <path
       d="m 2.0337268,12.337034 c 0,-6.2872022 4.207e-4,-6.3169641 0.089286,-6.3169641 0.088779,0 0.089286,0.029762 0.089286,5.2455361 l 0,5.245535 0.8928572,0 0.8928571,0 0,-1.629464 0,-1.629464 0.78125,0 0.78125,0 0,-5.5133931 0,-5.5133929 0.8482143,0 0.8482143,0 0,6.7633929 0,6.7633931 1.3839286,0 1.3839287,0 0,-4.575504 0,-4.5755036 0.385597,-0.5588016 c 0.263692,-0.3821388 0.4013,-0.5457606 0.435268,-0.5175514 0.02732,0.022688 0.205363,0.2701715 0.395653,0.5499642 l 0.345982,0.5087139 0,4.7852335 0,4.785234 1.25,0 1.25,0 0,-6.4955353 0,-6.4955357 0.765415,0 0.765414,0 -0.02909,3.515625 c -0.016,1.9335938 -0.04176,4.001342 -0.05724,4.594996 l -0.02816,1.079371 1.211472,0.606056 1.211472,0.606057 0,2.544483 0,2.544483 -7.946429,0 -7.9464286,0 0,-6.316964 z"
       transform="translate(0,1032.3622)"
       id="path2985"
       style="fill:#000000;stroke:#000000;stroke-width:0.02678571;stroke-miterlimit:4;stroke-dasharray:none" />
    <path
       d="m 2.2273074,6.3325699 c 0,-0.1841518 0.00788,-0.2594867 0.017512,-0.1674108 0.00963,0.092076 0.00963,0.2427456 0,0.3348215 -0.00963,0.092076 -0.017512,0.016741 -0.017512,-0.1674107 z"
       transform="translate(0,1032.3622)"
       id="path2988"
       style="fill:#000000;stroke:#000000;stroke-width:0.02678571;stroke-miterlimit:4;stroke-dasharray:none" />
  </g>
</svg>
